<?xml version="1.0" standalone="no"?><!DOCTYPE svg PUBLIC "-//W3C//DTD SVG 1.1//EN" "http://www.w3.org/Graphics/SVG/1.1/DTD/svg11.dtd"><svg stroke-width="1" id="Layer_1" data-name="Layer 1" viewBox="0 0 24 24" version="1.1" xmlns="http://www.w3.org/2000/svg" xmlns:xlink="http://www.w3.org/1999/xlink"><defs><style>.cls-0sulq2c3phz8w3hxnkh0h-1{fill:none;stroke:#674DC3;stroke-miterlimit:10;;}</style></defs><rect class="cls-0sulq2c3phz8w3hxnkh0h-1" x="1.48" y="2.41" width="21.04" height="4.78"/><rect class="cls-0sulq2c3phz8w3hxnkh0h-1" x="1.48" y="7.2" width="21.04" height="15.3"/><line class="cls-0sulq2c3phz8w3hxnkh0h-1" x1="6.26" y1="0.5" x2="6.26" y2="4.33"/><line class="cls-0sulq2c3phz8w3hxnkh0h-1" x1="17.74" y1="0.5" x2="17.74" y2="4.33"/><line class="cls-0sulq2c3phz8w3hxnkh0h-1" x1="12" y1="0.5" x2="12" y2="4.33"/><path class="cls-0sulq2c3phz8w3hxnkh0h-1" d="M11 18.67H6.26v-1L8.56 16a3.86 3.86 0 0 0 1.53-3.07A1.92 1.92 0 0 0 8.17 11H6.26"/><path class="cls-0sulq2c3phz8w3hxnkh0h-1" d="M17.74 11h-3.83v3.83h1.92a1.91 1.91 0 0 1 1.91 1.91 1.91 1.91 0 0 1-1.91 1.91H13"/></svg>