<?xml version="1.0" standalone="no"?>
<!DOCTYPE svg PUBLIC "-//W3C//DTD SVG 20010904//EN"
 "http://www.w3.org/TR/2001/REC-SVG-20010904/DTD/svg10.dtd">
<svg version="1.0" xmlns="http://www.w3.org/2000/svg"
 width="5208.000000pt" height="5208.000000pt" viewBox="0 0 5208.000000 5208.000000"
 preserveAspectRatio="xMidYMid meet">

<g transform="translate(0.000000,5208.000000) scale(0.100000,-0.100000)"
fill="#000000" stroke="none">
<path d="M0 26040 l0 -26040 26040 0 26040 0 0 26040 0 26040 -26040 0 -26040
0 0 -26040z m26962 14570 c443 -767 1394 -2414 2113 -3660 2213 -3832 3906
-6764 5130 -8885 645 -1116 1770 -3065 2500 -4330 1252 -2168 1956 -3388 3265
-5655 1139 -1973 2218 -3842 2728 -4725 289 -500 576 -998 638 -1105 l113
-195 -8704 -3 c-4788 -1 -12621 -1 -17408 0 l-8703 3 121 210 c67 116 485 840
930 1610 444 770 1050 1819 1345 2330 295 512 1135 1965 1865 3230 730 1265
1855 3214 2500 4330 645 1117 1770 3065 2500 4330 730 1265 1855 3214 2500
4330 3059 5298 3893 6742 4722 8180 492 853 902 1561 910 1574 15 23 16 22 72
-75 32 -55 420 -727 863 -1494z m16488 -29770 c24 -24 25 -43 4 -64 -14 -15
-1610 -16 -17413 -16 -13518 0 -17400 3 -17409 12 -18 18 -15 65 6 77 11 7
5612 10 17405 11 17374 0 17387 0 17407 -20z m-15723 -2101 l468 -460 3 440 2
441 100 0 100 0 0 -676 0 -675 -27 20 c-16 12 -228 216 -473 455 l-445 434 -3
-434 -2 -434 -105 0 -105 0 0 675 c0 416 4 675 9 675 6 0 220 -207 478 -461z
m-6572 399 c70 -25 155 -65 155 -72 0 -9 -72 -171 -78 -178 -4 -4 -43 11 -87
33 -316 155 -645 -59 -645 -420 0 -198 88 -349 243 -421 145 -68 335 -57 459
25 21 14 40 25 42 25 3 0 23 -39 46 -86 28 -61 37 -91 30 -99 -15 -19 -138
-72 -205 -90 -77 -20 -259 -20 -345 1 -179 42 -340 171 -418 334 -22 47 -46
110 -53 140 -20 80 -17 279 5 359 54 196 174 347 341 425 94 45 157 56 305 52
113 -3 146 -7 205 -28z m4930 17 c281 -71 496 -330 512 -619 18 -314 -202
-608 -508 -681 -83 -19 -248 -19 -324 0 -183 46 -352 181 -433 346 -143 290
-68 624 186 828 72 58 165 105 248 125 80 19 245 20 319 1z m3805 -6 c190 -52
351 -190 435 -374 46 -99 60 -165 59 -280 -1 -183 -62 -324 -198 -461 -67 -68
-97 -89 -176 -127 -52 -25 -120 -50 -150 -57 -78 -16 -226 -14 -304 5 -235 54
-430 248 -491 490 -19 75 -19 231 0 312 55 235 247 432 477 493 102 27 250 26
348 -1z m1699 -5 c31 -8 91 -31 133 -51 l77 -36 -40 -78 c-21 -44 -42 -79 -45
-79 -2 0 -21 8 -42 19 -118 60 -286 79 -367 42 -64 -29 -95 -72 -95 -134 0
-99 56 -145 295 -241 213 -86 295 -190 295 -372 0 -128 -53 -231 -153 -301
-148 -101 -415 -100 -622 3 -104 52 -103 50 -59 125 20 35 41 69 46 75 6 8 33
-1 91 -30 94 -47 164 -66 245 -66 136 0 225 61 238 162 14 102 -57 177 -238
248 -243 97 -333 182 -353 336 -8 59 8 152 37 207 44 88 160 166 278 186 67
12 204 4 279 -15z m-9399 -259 l0 -275 320 0 320 0 0 275 0 275 105 0 105 0 0
-655 0 -655 -105 0 -105 0 0 280 0 280 -320 0 -320 0 0 -280 0 -280 -105 0
-105 0 0 655 0 655 105 0 105 0 0 -275z m2131 252 c125 -42 219 -120 265 -220
26 -57 29 -72 29 -177 0 -191 -48 -283 -203 -385 -1 -1 67 -113 153 -248 85
-135 155 -248 155 -251 0 -4 -53 -6 -117 -6 l-118 1 -148 229 -149 230 -104 0
-104 0 0 -230 0 -230 -105 0 -105 0 0 656 0 656 253 -5 c191 -3 263 -8 298
-20z m13423 -3953 c21 -21 20 -40 -4 -64 -20 -20 -33 -20 -11699 -20 -10604 0
-11681 1 -11695 16 -19 18 -21 55 -4 72 9 9 2623 12 11699 12 10612 0 11689
-1 11703 -16z"/>
<path d="M25268 39883 c-695 -1205 -1108 -1921 -2888 -5003 -636 -1102 -1727
-2992 -2858 -4950 -421 -729 -1109 -1921 -1530 -2650 -421 -729 -1108 -1920
-1528 -2647 -420 -728 -1108 -1918 -1528 -2645 -420 -728 -1074 -1861 -1453
-2518 -380 -657 -1228 -2126 -1885 -3265 -658 -1138 -1403 -2429 -1656 -2868
l-460 -797 16560 0 16560 0 -20 33 c-11 17 -441 763 -957 1657 -516 894 -1213
2102 -1550 2685 -337 583 -1210 2095 -1940 3360 -730 1265 -1637 2836 -2015
3490 -378 655 -1065 1845 -1527 2645 -462 800 -1370 2373 -2018 3495 -648
1122 -1556 2695 -2018 3495 -462 800 -1183 2049 -1602 2775 -419 726 -1132
1961 -1585 2745 -452 784 -935 1620 -1072 1858 -138 237 -253 432 -257 432 -3
0 -351 -597 -773 -1327z m8036 -13878 l7195 -12460 -7229 -3 c-3977 -1 -10483
-1 -14458 0 l-7229 3 7199 12465 c3959 6856 7212 12489 7229 12519 l31 54 33
-59 c19 -32 3272 -5666 7229 -12519z"/>
<path d="M19243 25827 c-3735 -6469 -6795 -11770 -6798 -11779 -7 -17 645 -18
13595 -18 12950 0 13602 1 13597 18 -7 24 -13586 23536 -13595 23539 -4 2
-3063 -5290 -6799 -11760z m7352 6249 c281 -16 636 -71 820 -127 33 -10 83
-22 110 -28 28 -5 70 -16 95 -25 25 -8 66 -22 93 -31 122 -39 154 -52 292
-115 22 -10 74 -33 115 -50 41 -18 116 -51 165 -75 102 -48 198 -89 235 -100
14 -4 36 -16 49 -26 13 -11 27 -19 31 -19 5 0 37 -18 71 -39 35 -22 94 -59
131 -81 37 -23 72 -48 79 -56 6 -8 15 -14 20 -14 12 0 190 -133 214 -160 11
-13 79 -73 150 -135 180 -156 450 -433 585 -600 62 -77 130 -158 150 -180 99
-108 293 -417 346 -554 15 -36 42 -100 61 -141 20 -41 47 -100 60 -130 14 -30
33 -73 44 -96 10 -23 19 -47 19 -53 0 -7 8 -26 17 -44 17 -32 98 -259 133
-372 41 -131 77 -280 91 -375 6 -36 19 -111 30 -167 57 -303 57 -1063 1 -1333
-11 -52 -25 -129 -30 -170 -9 -70 -16 -107 -57 -270 -9 -36 -23 -94 -31 -129
-14 -60 -34 -117 -71 -201 -9 -19 -21 -55 -29 -80 -12 -44 -51 -144 -78 -205
-138 -304 -166 -369 -166 -379 0 -15 -40 -93 -74 -146 -13 -19 -47 -73 -77
-120 -174 -275 -535 -680 -855 -959 -65 -58 -150 -135 -189 -171 -70 -67 -190
-157 -320 -242 -79 -51 -291 -178 -298 -178 -3 0 -40 -20 -84 -44 -43 -24 -94
-47 -112 -51 -30 -6 -88 -29 -176 -70 -38 -17 -187 -82 -200 -86 -31 -12 -85
-57 -85 -71 0 -21 -27 -20 345 -17 154 1 397 1 540 0 143 -1 350 -1 460 1 110
1 450 1 755 0 305 -1 609 -1 675 0 125 1 209 1 335 -1 41 -1 243 -1 448 -1
376 0 412 -3 412 -36 0 -59 -257 -338 -397 -430 -141 -95 -173 -104 -380 -106
-181 -2 -447 -2 -628 0 -55 1 -134 1 -175 0 -41 -1 -127 -1 -190 0 -63 0 -371
0 -685 -1 -313 -1 -651 0 -750 1 -149 3 -613 5 -1900 6 -91 0 -952 -3 -1105
-4 -14 -1 -234 -2 -490 -4 l-465 -3 -17 -34 c-17 -32 -18 -170 -18 -2465 0
-2011 -2 -2467 -14 -2640 -8 -115 -18 -337 -21 -494 -4 -157 -13 -364 -21
-460 -8 -96 -19 -238 -24 -315 -6 -77 -18 -180 -26 -230 -8 -49 -19 -158 -24
-241 -6 -84 -12 -159 -15 -166 -9 -25 -35 -232 -35 -282 0 -28 -9 -87 -20
-131 -11 -44 -20 -88 -20 -97 0 -20 -34 -58 -50 -58 -6 0 -22 11 -35 25 -21
20 -25 34 -25 79 0 30 -9 102 -20 158 -11 57 -25 166 -30 243 -5 77 -17 178
-25 225 -9 47 -20 184 -25 305 -5 121 -14 247 -20 280 -5 33 -14 233 -20 445
-6 212 -16 475 -22 585 -8 139 -14 970 -18 2710 -5 2337 -6 2513 -22 2537 -23
35 -50 38 -293 27 -117 -6 -248 -7 -295 -2 -47 4 -112 5 -145 1 -33 -4 -355
-4 -715 -1 -360 4 -718 6 -795 5 -430 -4 -1001 1 -1017 9 -49 26 7 124 145
255 169 159 336 269 447 293 39 9 243 10 1005 8 88 0 494 2 903 5 682 4 744 6
760 22 14 14 17 36 17 121 0 124 2 120 -128 189 -166 88 -400 242 -598 394
-135 103 -376 317 -414 368 -16 22 -77 91 -135 154 -58 63 -126 140 -150 170
-25 30 -74 87 -111 126 -145 158 -399 582 -551 924 -14 30 -37 81 -52 113 -14
31 -26 63 -26 70 0 7 -9 30 -19 51 -11 21 -23 52 -27 69 -4 18 -17 55 -29 82
-38 83 -64 157 -76 215 -6 30 -18 67 -25 82 -8 14 -17 59 -20 100 -3 40 -15
111 -25 158 -10 47 -23 142 -28 210 -6 69 -15 150 -21 180 -22 116 -23 259 -2
420 11 85 23 200 27 255 4 55 13 132 21 170 8 39 19 115 24 170 8 96 48 240
85 311 8 16 15 33 15 37 0 17 111 244 198 408 161 302 161 302 206 281 21 -9
26 -19 26 -47 0 -20 -5 -46 -12 -58 -7 -12 -18 -69 -25 -127 -7 -58 -19 -130
-28 -160 -11 -40 -18 -136 -25 -350 -5 -162 -14 -313 -20 -335 -15 -58 -31
-421 -24 -555 3 -63 14 -176 24 -250 10 -74 21 -179 25 -232 3 -54 15 -129 26
-168 10 -38 19 -80 19 -93 0 -12 7 -47 15 -77 9 -30 26 -93 39 -140 56 -199
93 -304 152 -428 24 -51 44 -97 44 -103 0 -10 14 -40 107 -224 52 -103 81
-160 137 -260 17 -29 41 -67 123 -191 40 -61 73 -114 73 -117 0 -39 227 -313
330 -397 36 -31 100 -88 141 -127 185 -176 422 -362 611 -479 56 -34 75 -41
89 -33 18 9 19 81 19 2459 0 1562 4 2458 10 2474 5 14 54 72 107 128 54 57
121 135 150 173 50 69 143 236 158 285 4 14 22 56 40 93 32 67 32 67 39 36 3
-17 6 -1357 6 -2978 0 -2536 2 -2949 14 -2967 8 -11 32 -28 53 -37 79 -33 195
-77 206 -77 7 0 25 -7 41 -15 28 -15 116 -41 241 -72 33 -8 89 -23 125 -33
197 -55 623 -101 940 -100 174 0 573 33 656 53 32 8 88 18 122 22 35 3 91 14
125 25 34 10 82 21 107 24 25 4 72 15 105 26 33 11 110 35 170 54 169 54 334
118 374 145 14 9 76 41 136 71 91 44 182 93 360 194 215 122 596 421 719 566
28 32 74 76 102 98 68 53 232 243 382 442 107 141 280 430 351 585 18 39 41
88 51 110 10 22 32 74 50 115 17 41 36 84 42 95 7 11 19 47 29 80 10 33 24 80
33 105 15 46 27 90 52 195 8 33 22 89 31 125 9 36 20 99 25 140 5 41 15 109
23 151 26 132 34 267 35 554 0 292 -10 459 -34 567 -8 35 -17 96 -21 136 -3
40 -14 96 -24 125 -10 28 -21 76 -25 105 -4 30 -16 76 -26 103 -11 27 -20 58
-20 68 0 20 -66 199 -80 216 -4 6 -11 26 -15 45 -4 19 -18 55 -31 80 -13 25
-24 50 -24 56 0 10 -157 328 -179 364 -5 8 -33 55 -62 104 -146 248 -351 519
-524 691 -67 66 -141 143 -166 171 -99 114 -325 298 -549 449 -179 120 -278
176 -560 315 -19 10 -62 31 -95 48 -83 43 -200 92 -219 92 -8 0 -35 8 -58 19
-81 35 -334 109 -438 127 -41 8 -100 20 -130 29 -30 8 -77 15 -105 15 -27 0
-120 9 -206 20 -286 35 -682 34 -1025 -4 -231 -26 -283 -36 -454 -82 -30 -8
-80 -21 -110 -28 -64 -16 -173 -49 -245 -76 -27 -10 -66 -23 -85 -29 -68 -19
-155 -60 -172 -82 -17 -19 -18 -58 -19 -478 0 -251 -4 -465 -8 -475 -6 -15
-21 8 -69 105 -34 68 -85 160 -114 204 -49 75 -170 206 -265 286 -23 19 -45
48 -49 64 -4 17 -2 73 5 125 7 52 15 160 17 240 3 80 7 155 10 167 10 51 86
95 579 333 105 50 202 86 270 99 22 4 76 17 120 28 455 122 894 161 1460 129z
m2660 -10937 c133 -70 187 -210 123 -319 -33 -56 -60 -81 -122 -114 -64 -34
-112 -33 -184 3 -70 36 -94 60 -127 134 -21 45 -25 66 -20 95 16 85 78 167
159 206 45 23 124 20 171 -5z m-8773 -55 c73 -38 148 -150 148 -223 0 -77 -89
-202 -163 -230 -100 -38 -221 18 -288 132 -26 45 -29 60 -26 109 5 78 54 152
127 192 87 48 138 52 202 20z"/>
<path d="M25856 8969 c-246 -36 -423 -293 -376 -549 55 -301 373 -470 644
-342 284 135 351 520 131 751 -107 113 -248 162 -399 140z"/>
<path d="M29646 8969 c-172 -25 -324 -166 -371 -344 -70 -271 108 -544 382
-585 276 -42 513 173 513 466 0 290 -241 503 -524 463z"/>
<path d="M23980 8729 l0 -232 128 5 c172 7 228 32 273 120 59 115 16 258 -94
313 -47 23 -62 25 -179 25 l-128 0 0 -231z"/>
</g>
</svg>
